<?xml version="1.0" encoding="utf-8"?>
<!-- Generator: Adobe Illustrator 25.2.1, SVG Export Plug-In . SVG Version: 6.00 Build 0)  -->
<svg version="1.1" id="Layer_1" xmlns="http://www.w3.org/2000/svg" xmlns:xlink="http://www.w3.org/1999/xlink" x="0px" y="0px"
	 viewBox="0 0 34.9 34.9" style="enable-background:new 0 0 34.9 34.9;" xml:space="preserve">
<style type="text/css">
	.st0{fill:#F41133;}
</style>
<g>
	<rect width="34.9" height="34.9"/>
	<g id="Layer_2_1_">
		<g id="Layer_1-2">
			<path class="st0" d="M32,8.8H21.9V5.9H32V8.8z M34.5,23.3c-0.7,1.9-2.9,4.3-7.4,4.3s-8-2.5-8-8.2s3.4-8.6,7.9-8.6
				c3.9-0.3,7.3,2.5,7.8,6.4c0.1,1,0.2,2.1,0.1,3.1H23.3c-0.1,2.2,1.6,4,3.8,4c1.1,0,2.1-0.4,2.8-1.1H34.5z M23.3,17.5h7.2
				c0-1.8-1.5-3.2-3.3-3.2c-0.1,0-0.2,0-0.3,0c-1.8-0.2-3.4,1.1-3.6,3C23.3,17.3,23.3,17.4,23.3,17.5z M9.5,27.6H0.2V5.9h10.1
				c7.9,0.1,8.1,7.9,3.9,10C19.2,17.8,19.3,27.6,9.5,27.6z M4.5,14.6h5.2c3.6,0,4.2-4.3-0.4-4.3H4.5V14.6z M9.4,18.9H4.5v4.3h4.8
				C13.8,23.3,13.5,18.9,9.4,18.9z"/>
		</g>
	</g>
</g>
</svg>
