<svg xmlns="http://www.w3.org/2000/svg" viewBox="0 0 34.9 34.9"><defs><style>.cls-1{fill:#fff;}</style></defs><g id="Layer_2" data-name="Layer 2"><g id="Layer_1-2" data-name="Layer 1"><rect width="34.9" height="34.9"/><g id="Layer_2-2" data-name="Layer 2"><g id="Layer_1-2-2" data-name="Layer 1-2"><path class="cls-1" d="M32,8.82H21.87V5.92H32ZM34.5,23.29c-.65,1.88-2.9,4.34-7.4,4.34s-8-2.51-8-8.22,3.37-8.57,7.91-8.57a7.24,7.24,0,0,1,7.77,6.41,19.38,19.38,0,0,1,.15,3.14H23.31A3.91,3.91,0,0,0,30,23.29ZM23.31,17.5h7.24a3.24,3.24,0,0,0-3.25-3.23,1.88,1.88,0,0,0-.34,0,3.31,3.31,0,0,0-3.63,3A2.11,2.11,0,0,0,23.31,17.5ZM9.52,27.63H.16V5.92H10.29c7.93.12,8.07,7.87,3.93,10C19.16,17.77,19.33,27.63,9.52,27.63Zm-5-13H9.68c3.63,0,4.21-4.34-.45-4.34H4.5ZM9.41,19H4.5v4.34H9.33C13.76,23.29,13.49,19,9.41,19Z"/></g></g></g></g></svg>