<?xml version="1.0" encoding="utf-8"?>
<!-- Generator: Adobe Illustrator 25.1.0, SVG Export Plug-In . SVG Version: 6.00 Build 0)  -->
<svg version="1.1" id="Layer_1" xmlns="http://www.w3.org/2000/svg" xmlns:xlink="http://www.w3.org/1999/xlink" x="0px" y="0px"
	 viewBox="0 0 121.1 120.6" style="enable-background:new 0 0 121.1 120.6;" xml:space="preserve">
<style type="text/css">
	.st0{fill:#603813;}
	.st1{fill:#A37C52;}
</style>
<g id="Layer_2_1_">
	<g id="Layer_1-2">
		<path class="st0" d="M61.3,112.6c-27.7,0-53.6-22.5-53.6-51.9c0-29.2,23.8-53,53.6-53c29.4,0,53.7,23.6,53.7,52.5
			C115,88.8,90.7,112.6,61.3,112.6z M61.1,16.8c-24,0-43.3,20.3-43.3,43.8c0,22.9,19.9,42.7,43.4,42.7c24.2,0,43.6-19.9,43.6-43.2
			C104.6,36.3,85.1,16.9,61.1,16.8z"/>
		<path class="st1" d="M95.2,43.7c-0.1-0.1-0.3-0.1-0.4,0c-3.3,1.7-6.9,6.8-7.4,11.8c-2.3-1.8-6.5-1.8-9.1-1.2
			c-0.3,0.1-0.5,0.4-0.4,0.7c0,0.2,0.2,0.3,0.3,0.4c2,0.8,3.8,2.9,5.3,5.3l0,0c2.8,5.3-20.2,5.9-17.4,0.1c2.6-3,6-5.4,8.9-5.7
			c0.2,0,0.4-0.2,0.5-0.4c0,0,0-0.1,0-0.1c0-0.2-0.1-0.4-0.3-0.5c-2.2-1.4-6.2-2.7-9-1.7c1-4.9-0.8-10.9-3.4-13.5
			c-0.2-0.2-0.6-0.2-0.8,0c-2.6,2.6-4.4,8.6-3.4,13.5c-2.8-1-6.8,0.3-9,1.7c-0.2,0.2-0.3,0.5-0.1,0.8c0.1,0.1,0.2,0.2,0.4,0.2
			c2.9,0.2,6.2,2.6,8.8,5.6c2.8,5.3-20.4,5.9-17.4,0c1.5-2.5,3.3-4.5,5.3-5.3c0.3-0.1,0.4-0.5,0.3-0.7c-0.1-0.2-0.2-0.3-0.4-0.3
			c-2.5-0.6-6.7-0.7-9.1,1.2c-0.5-4.9-4.1-10.1-7.4-11.8c-0.1-0.1-0.3-0.1-0.4,0l7,21.6l3,9.5l45.8-0.8l2.7-8.7l0,0L95.2,43.7z"/>
	</g>
</g>
</svg>
