<svg xmlns="http://www.w3.org/2000/svg" viewBox="0 0 274.14 230.67"><defs><style>.cls-1{fill:none;}.cls-1,.cls-2,.cls-3{stroke:#fff;}.cls-1,.cls-2,.cls-3,.cls-4{stroke-miterlimit:10;}.cls-2{font-size:153.55px;font-family:BodoniSvtyTwoSCITCTT-Book, "Bodoni 72 Smallcaps";}.cls-2,.cls-3,.cls-4{fill:#fff;}.cls-4{stroke:#000;}</style></defs><g id="Layer_2" data-name="Layer 2"><g id="Layer_1-2" data-name="Layer 1"><g id="Layer_2-2" data-name="Layer 2"><g id="Layer_1-2-2" data-name="Layer 1-2"><circle class="cls-1" cx="138.41" cy="126.5" r="103.67"/><circle class="cls-1" cx="156.58" cy="108.8" r="105.23"/><text class="cls-2" transform="translate(84.68 173.12) scale(1.63 1)">M</text><path class="cls-3" d="M131.92,124.51c-8-6.23-12.38-7.87-17-7.87-3.16,0-5.83,1-10,2.79a74.91,74.91,0,0,1-27.65,5.08C26.75,124.51,1,96.51,1,67.33,1,37.83,27,9.8,76.3,9.8a76,76,0,0,1,27.93,5.08c3.4,1.31,5.59,2.29,8.5,2.29,4.13,0,7.78-1.8,14.33-7.37h2V41.6h-2.19l-2.8-16.09C118,12.76,101.32,11.93,76.51,11.93,38.87,11.93,26,39.63,26,67.17c0,27.7,13.61,55.24,51.25,55.24,26.48,0,44.24,2.75,52.25-12.82l2.16-21.77h2.19v36.69Z"/><path class="cls-4" d="M221.67,73.62l49-.15v1.76h-25.1V177.51h26.25v1.77H196v-1.77H223.6v-98q-5.23,11-15.81,32.76T185.7,156.63q-11.52,22.56-12.89,22.57-1,0-8.34-13.48T146,130.26q-11.21-22-16.65-32.8t-8.48-17v90.05q0,2.63,3.17,4.11a26.07,26.07,0,0,0,8,2.06,98.32,98.32,0,0,0,10,.63l7.86.09.27,2.08-63.45-.31v-1.66q27.9,0,27.89-7l.28-88.44c0-2-1.5-3.49-4.51-4.33A49.67,49.67,0,0,0,99.73,76l-14.15-.78V73.51h56.15l37.83,79.43h1.73Z"/><path class="cls-3" d="M46.51,30.26H151.38v1.92H115.2V134.57q27.93-.27,45.64-1.19a208.26,208.26,0,0,0,31.87-3.87q14.16-3,21.44-9,12.71-10.41,19.5-31.94h2.86v47.84l-194,.1v-1.76H82.6V32.18H46.9Z"/><path class="cls-4" d="M47.59,26.05H150.51a.87.87,0,0,1,.88.88h0v.16a.88.88,0,0,1-.86.88H116.08a.87.87,0,0,0-.88.88V129.51a.88.88,0,0,0,.88.88h0q27.33-.27,44.75-1.18a207.09,207.09,0,0,0,31.87-3.92c9.44-2,29.49,4,34.34,0,8.36-6.82,1.89-26.26,6.4-40.31a.88.88,0,0,1,.84-.62h1.29a.87.87,0,0,1,.88.88h0v46.09a.88.88,0,0,1-.88.88h0l-192.17.15a.88.88,0,0,1-.88-.88h0a.87.87,0,0,1,.88-.88H81.72a.88.88,0,0,0,.88-.88h0V28.85a.89.89,0,0,0-.88-.88H47.62a.89.89,0,0,1-.87-.7v-.16a.9.9,0,0,1,.7-1.05Z"/><path class="cls-4" d="M132.06,40.17c-1.66-5.13,1.6-20.3-1.72-24.8s-13,2-17.52-1.37A56.39,56.39,0,0,0,97.51,6.13a55.67,55.67,0,0,0-18.1-2.89,53.62,53.62,0,0,0-23.55,5A52.4,52.4,0,0,0,38.51,21.39,59.1,59.1,0,0,0,27.8,39.93a62.25,62.25,0,0,0-3.74,21.28A59.28,59.28,0,0,0,28,82.89a51.53,51.53,0,0,0,11.2,17.62,52.73,52.73,0,0,0,17.62,11.77,58.84,58.84,0,0,0,23,4.33,56.17,56.17,0,0,0,18.67-3,59,59,0,0,0,15.51-8c4.53-3.32,12.49,3.3,15.62-1s1.13-19.24,2.28-23.85h2.3l-.57,35.33h-2.3a49.2,49.2,0,0,0-4.79-5q-2.49-2.25-3.45-2.25a18.6,18.6,0,0,0-3.44,1.69,61.2,61.2,0,0,1-8.81,3.69,96.31,96.31,0,0,1-14,3.54,106.12,106.12,0,0,1-19,1.52A113.54,113.54,0,0,1,45.66,115a73.67,73.67,0,0,1-24.41-12A53,53,0,0,1,1,53.82,50.32,50.32,0,0,1,2.71,46,58.38,58.38,0,0,1,6.16,37.2,57.32,57.32,0,0,1,11.81,28a60.52,60.52,0,0,1,10-10.46,63.48,63.48,0,0,1,14-8.75,87.65,87.65,0,0,1,18.2-6A105.4,105.4,0,0,1,76.72.51,100.55,100.55,0,0,1,96.83,2.28a104.87,104.87,0,0,1,14.36,3.85A58.91,58.91,0,0,1,120,10a17.84,17.84,0,0,0,3.45,1.77,3.72,3.72,0,0,0,1.43-.72c.7-.48,1.47-1.07,2.3-1.77s1.69-1.5,2.59-2.41A36.76,36.76,0,0,0,132.26,4h2.1V40Z"/><path class="cls-4" d="M26.9,39.37H131.77v1.92H95.58V143.68q27.94-.27,45.65-1.2a207.09,207.09,0,0,0,31.87-3.92c9.44-2,29.52,5.1,34.37,1.08,8.47-6.93,2-27.68,6.57-42h2.81v47.84l-193.93.16v-1.76H63V41.29H27.28Z"/></g></g></g></g></svg>