<svg xmlns="http://www.w3.org/2000/svg" viewBox="0 0 273.68 230.16"><defs><style>.cls-1,.cls-2,.cls-3,.cls-4{fill:none;}.cls-1{stroke:#f41133;}.cls-1,.cls-2{stroke-miterlimit:10;}.cls-2,.cls-3,.cls-4{stroke:#000;stroke-width:0.75px;}.cls-3{font-size:153.55px;font-family:BodoniSvtyTwoSCITCTT-Book, "Bodoni 72 Smallcaps";}.cls-5{fill:#f41133;}</style></defs><g id="Layer_2" data-name="Layer 2"><g id="Layer_1-2" data-name="Layer 1"><circle class="cls-1" cx="137.9" cy="125.99" r="103.67"/><circle class="cls-2" cx="156.07" cy="108.29" r="105.23"/><text class="cls-3" transform="translate(84.17 172.61) scale(1.63 1)">M</text><path class="cls-4" d="M131.41,124c-8-6.23-12.38-7.87-17-7.87-3.16,0-5.83,1-10,2.79A74.81,74.81,0,0,1,76.76,124C26.24,124,.5,96,.5,66.82c0-29.5,26-57.53,75.29-57.53a76.13,76.13,0,0,1,27.93,5.08c3.4,1.31,5.59,2.29,8.5,2.29,4.13,0,7.78-1.8,14.33-7.37h2v31.8h-2.19L123.56,25C117.48,12.25,100.81,11.42,76,11.42c-37.64,0-50.52,27.7-50.52,55.24,0,27.7,13.61,55.24,51.25,55.24,26.48,0,44.24,2.75,52.25-12.82l2.16-21.77h2.19V124Z"/><path class="cls-5" d="M221.16,73.11l49-.15v1.76H245.06V177h26.25v1.77H195.47V177h27.62V79q-5.24,11-15.81,32.76t-22.09,44.36q-11.52,22.56-12.89,22.57-1,0-8.34-13.48t-18.5-35.46q-11.21-22-16.65-32.8t-8.48-17v90.05q0,2.63,3.17,4.11a26,26,0,0,0,8,2.06,95.55,95.55,0,0,0,10,.63l7.86.09.27,2.08-63.45-.31V177q27.9,0,27.89-7l.28-88.44q0-3.06-4.51-4.33A50.5,50.5,0,0,0,99.22,75.5l-14.15-.78V73h56.15l37.83,79.43h1.73Z"/><path class="cls-5" d="M46,29.75H150.87v1.92H114.69V134.06q27.93-.27,45.64-1.19A207.1,207.1,0,0,0,192.2,129q14.16-3,21.44-9,12.71-10.4,19.5-31.94H236v47.84L42,136v-1.76H82.09V31.67H46.39Z"/><path class="cls-2" d="M47.08,25.54H150a.88.88,0,0,1,.88.88v.16a.87.87,0,0,1-.88.88H115.57a.88.88,0,0,0-.88.88V129a.88.88,0,0,0,.89.88q27.33-.27,44.75-1.18a207.1,207.1,0,0,0,31.87-3.92c9.44-2,29.49,4,34.34,0,8.36-6.82,1.89-26.26,6.4-40.31a.89.89,0,0,1,.84-.62h1.29a.88.88,0,0,1,.88.88v46.09a.88.88,0,0,1-.88.88l-192.17.15a.88.88,0,0,1-.88-.88h0a.88.88,0,0,1,.88-.88H81.21a.88.88,0,0,0,.88-.88V28.34a.89.89,0,0,0-.88-.88H47.11a.89.89,0,0,1-.87-.7l0-.16A.89.89,0,0,1,47.08,25.54Z"/><path class="cls-5" d="M131.55,39.66c-1.66-5.13,1.6-20.3-1.72-24.8s-13,1.95-17.52-1.37A56.44,56.44,0,0,0,97,5.62a55.86,55.86,0,0,0-18.1-2.89,53.62,53.62,0,0,0-23.55,5A52.28,52.28,0,0,0,38,20.88,59.3,59.3,0,0,0,27.29,39.42,62.31,62.31,0,0,0,23.55,60.7a59.36,59.36,0,0,0,3.93,21.68A51.62,51.62,0,0,0,38.68,100,52.64,52.64,0,0,0,56.3,111.77a58.85,58.85,0,0,0,23,4.33,56,56,0,0,0,18.67-3,58.93,58.93,0,0,0,15.51-8c4.53-3.32,12.49,3.3,15.62-1s1.13-19.24,2.28-23.85h2.3l-.57,35.33h-2.3a50.49,50.49,0,0,0-4.79-5q-2.49-2.25-3.45-2.25a18.9,18.9,0,0,0-3.44,1.69,60.53,60.53,0,0,1-8.81,3.69,96.12,96.12,0,0,1-14,3.54,105.65,105.65,0,0,1-19,1.52,113.39,113.39,0,0,1-32.17-4.25,73.45,73.45,0,0,1-24.41-12A52.17,52.17,0,0,1,0,59.9a51.83,51.83,0,0,1,.48-6.59A50.21,50.21,0,0,1,2.2,45.45a59.08,59.08,0,0,1,3.45-8.76,57.76,57.76,0,0,1,5.65-9.23A60.65,60.65,0,0,1,21.26,17a63.69,63.69,0,0,1,14-8.75,87.71,87.71,0,0,1,18.2-6A105.54,105.54,0,0,1,76.21,0,100.89,100.89,0,0,1,96.32,1.77a104.91,104.91,0,0,1,14.36,3.85,58.82,58.82,0,0,1,8.81,3.85,17.62,17.62,0,0,0,3.45,1.77,3.51,3.51,0,0,0,1.43-.72c.7-.48,1.47-1.07,2.3-1.77s1.69-1.5,2.59-2.41a36.28,36.28,0,0,0,2.49-2.81h2.1v36Z"/><path class="cls-2" d="M26.39,38.86H131.26v1.92H95.07V143.17q27.95-.27,45.65-1.2a206,206,0,0,0,31.87-3.92c9.44-2,29.52,5.1,34.37,1.08,8.47-6.93,2-27.68,6.57-42h2.81v47.84l-193.93.16v-1.76H62.47V40.78H26.77Z"/></g></g></svg>