<svg xmlns="http://www.w3.org/2000/svg" viewBox="0 0 266 208.05"><defs><style>.cls-1,.cls-2,.cls-3{fill:none;}.cls-1,.cls-2,.cls-3,.cls-4{stroke:#000;}.cls-1,.cls-4{stroke-miterlimit:10;}.cls-2{font-size:148.84px;font-family:BodoniSvtyTwoSCITCTT-Book, "Bodoni 72 Smallcaps";}.cls-4{stroke-width:1.16px;}</style></defs><g id="Layer_2" data-name="Layer 2"><g id="Layer_2-2" data-name="Layer 2"><circle class="cls-1" cx="151.86" cy="105.55" r="102"/><text class="cls-2" transform="translate(82.17 167.89) scale(1.63 1)">M</text><path class="cls-3" d="M128,120.8c-7.77-6-12-7.62-16.48-7.62-3.06,0-5.65.95-9.66,2.7A72.58,72.58,0,0,1,75,120.8c-49,0-73.93-27.17-73.93-55.45,0-28.6,25.19-55.77,73-55.77a74.16,74.16,0,0,1,27.08,4.92c3.29,1.28,5.41,2.23,8.24,2.23,4,0,7.53-1.75,13.89-7.15h1.88V40.4H123l-2.67-15.56c-5.88-12.39-22-13.2-46.06-13.2-36.49,0-49,26.86-49,53.55C25.31,92,38.49,118.74,75,118.74c25.66,0,42.87,2.66,50.64-12.43l2.09-21.1h2.12V120.8Z"/><path class="cls-4" d="M215,71.45l47.47-.15V73h-24.3V172.1h25.44v1.71H190.05V172.1h26.77V77.18q-5.07,10.63-15.33,31.76t-21.41,43q-11.16,21.88-12.49,21.88-1,0-8.08-13.07t-17.94-34.37q-10.86-21.3-16.14-31.79t-8.21-16.45v87.29q0,2.54,3.07,4a25.21,25.21,0,0,0,7.78,2,92.53,92.53,0,0,0,9.72.61l7.62.09.27,2-61.51-.3V172.1q27,0,27-6.84l.27-85.72q0-3-4.38-4.2a48.28,48.28,0,0,0-10.34-1.57q-6-.34-13.72-.76V71.3h54.42l36.68,77h1.67Z"/><path class="cls-4" d="M45.17,29.42H146.82v1.86H111.74v99.24q27.09-.26,44.25-1.15a201.78,201.78,0,0,0,30.89-3.8q13.73-2.91,20.78-8.76,12.32-10.07,18.9-30.95h2.73v46.37l-188,.16v-1.71H80.15V31.28H45.54Z"/><path class="cls-1" d="M46.21,25.34H146a.85.85,0,0,1,.86.85v.15a.85.85,0,0,1-.86.86H112.6a.86.86,0,0,0-.86.85v97.53a.86.86,0,0,0,.87.86q26.49-.27,43.38-1.15a200.54,200.54,0,0,0,30.89-3.8c9.15-1.94,28.59,3.86,33.29,0,8.09-6.61,1.82-25.45,6.2-39.08a.86.86,0,0,1,.81-.59h1.26a.85.85,0,0,1,.85.85V127.3a.86.86,0,0,1-.85.86l-186.28.15a.86.86,0,0,1-.85-.86h0a.85.85,0,0,1,.85-.85H79.29a.87.87,0,0,0,.86-.86V28.05a.86.86,0,0,0-.86-.85H46.24a.86.86,0,0,1-.84-.69l0-.15A.86.86,0,0,1,46.21,25.34Z"/><path class="cls-4" d="M128.09,39c-1.6-5,1.55-19.68-1.67-24s-12.59,1.89-17-1.33A54.88,54.88,0,0,0,77.05,3.22,51.94,51.94,0,0,0,54.22,8.05a50.75,50.75,0,0,0-16.8,12.76A57.46,57.46,0,0,0,27,38.79a60.45,60.45,0,0,0-3.62,20.63,57.71,57.71,0,0,0,3.8,21,50.07,50.07,0,0,0,10.86,17,51,51,0,0,0,17.08,11.44,56.91,56.91,0,0,0,22.27,4.21,54.41,54.41,0,0,0,18.1-3,57.41,57.41,0,0,0,15-7.78c4.4-3.22,12.11,3.19,15.15-1s1.1-18.66,2.21-23.12h2.23l-.56,34.24h-2.23a48.39,48.39,0,0,0-4.64-4.82c-1.61-1.45-2.72-2.18-3.34-2.18a17.4,17.4,0,0,0-3.34,1.63,58,58,0,0,1-8.54,3.58,93.16,93.16,0,0,1-13.55,3.43,102.25,102.25,0,0,1-18.37,1.48,109.65,109.65,0,0,1-31.19-4.13A71.24,71.24,0,0,1,20.72,99.81,50.62,50.62,0,0,1,.58,58.64,49.9,49.9,0,0,1,1,52.26a49.31,49.31,0,0,1,1.67-7.63,58.18,58.18,0,0,1,3.34-8.48,55.8,55.8,0,0,1,5.48-9,59.11,59.11,0,0,1,9.65-10.11A61.81,61.81,0,0,1,34.73,8.59,84.79,84.79,0,0,1,52.36,2.76,102.7,102.7,0,0,1,74.45.58,98.09,98.09,0,0,1,93.94,2.29,100.33,100.33,0,0,1,107.86,6a57,57,0,0,1,8.54,3.73,17.28,17.28,0,0,0,3.34,1.71,3.32,3.32,0,0,0,1.39-.7,25.84,25.84,0,0,0,2.23-1.71c.8-.67,1.64-1.45,2.51-2.33A34.11,34.11,0,0,0,128.28,4h2V38.87Z"/><path class="cls-1" d="M26.15,38.24H127.81V40.1H92.73v99.25q27.09-.25,44.25-1.16a200.61,200.61,0,0,0,30.89-3.79c9.15-1.94,28.61,4.93,33.32,1,8.21-6.71,2-26.82,6.36-40.75h2.73v46.38l-188,.15V139.5H61.14V40.1H26.53Z"/></g></g></svg>